<svg xmlns="http://www.w3.org/2000/svg" viewBox="0 0 99.96 35.89">
  <defs>
    <style>
      .a {
        fill: #fff;
      }
    </style>
  </defs>
  <g>
    <rect class="a" x="0.33" y="0.34" width="38.86" height="23.15"/>
    <path d="M39.53,23.82H0V0H39.53ZM.67,23.15H38.86V.67H.67Z" transform="translate(0 0)"/>
  </g>
  <g>
    <path class="a" d="M.34,23.48H99.62a0,0,0,0,1,0,0v6a6,6,0,0,1-6,6H6.37a6,6,0,0,1-6-6v-6a0,0,0,0,1,0,0Z" transform="translate(99.96 59.03) rotate(-180)"/>
    <path d="M100,35.89H0V29.52a6.38,6.38,0,0,1,6.37-6.37H93.59A6.38,6.38,0,0,1,100,29.52ZM.67,35.22H99.29v-5.7a5.71,5.71,0,0,0-5.7-5.7H6.37a5.71,5.71,0,0,0-5.7,5.7Z" transform="translate(0 0)"/>
  </g>
  <g>
    <rect class="a" x="39.19" y="0.34" width="60.43" height="23.15" rx="11.57"/>
    <path d="M88.05,23.82H50.76A11.91,11.91,0,0,1,50.76,0H88.05a11.91,11.91,0,0,1,0,23.82ZM50.76.67a11.24,11.24,0,0,0,0,22.48H88.05a11.24,11.24,0,1,0,0-22.48Z" transform="translate(0 0)"/>
  </g>
  <g>
    <path d="M10.39,27.62H7.89v1.59h2.46v.59H7.89V32H7.24V27h3.15Z" transform="translate(0 0)"/>
    <path d="M12.14,31.39h2.27V32H11.49V27h.65Z" transform="translate(0 0)"/>
    <path d="M14.73,29.51a2.36,2.36,0,1,1,4.71,0,2.36,2.36,0,1,1-4.71,0Zm4,0a1.7,1.7,0,1,0-3.34,0,1.7,1.7,0,1,0,3.34,0Z" transform="translate(0 0)"/>
    <path d="M26.46,27h.7L25.94,32H24.58l-1-4.91-1,4.91H21.26L20.05,27h.69L22,32l1-4.91h1.35l1,4.91Z" transform="translate(0 0)"/>
    <path d="M28.75,31.39h2.62V32H28.09V27h3.22v.58H28.75v1.52h2.52v.58H28.75Z" transform="translate(0 0)"/>
    <path d="M36.35,32h-.77l-1.19-2H33.21v2h-.66V27h1.82c1.1,0,1.78.57,1.78,1.46a1.36,1.36,0,0,1-1.06,1.36Zm-3.14-4.36v1.76h1.18c.67,0,1.08-.32,1.08-.88s-.41-.88-1.08-.88Z" transform="translate(0 0)"/>
    <path d="M45.9,27c1.17,0,1.88.55,1.88,1.54s-.71,1.55-1.88,1.55H44.73V32h-.65V27Zm0,2.51c.76,0,1.17-.32,1.17-1s-.41-1-1.17-1H44.73v1.93Z" transform="translate(0 0)"/>
    <path d="M48.51,29.51a2.36,2.36,0,1,1,4.7,0,2.36,2.36,0,1,1-4.7,0Zm4,0a1.7,1.7,0,1,0-3.34,0,1.7,1.7,0,1,0,3.34,0Z" transform="translate(0 0)"/>
    <path d="M60.24,27h.69L59.72,32H58.35l-1-4.91L56.4,32H55L53.82,27h.7L55.73,32l1-4.91h1.35L59,32Z" transform="translate(0 0)"/>
    <path d="M62.53,31.39h2.61V32H61.87V27h3.22v.58H62.53v1.52H65v.58H62.53Z" transform="translate(0 0)"/>
    <path d="M70.12,32h-.76l-1.19-2H67v2h-.65V27h1.82c1.09,0,1.77.57,1.77,1.46a1.36,1.36,0,0,1-1.06,1.36ZM67,27.62v1.76h1.18c.67,0,1.08-.32,1.08-.88s-.41-.88-1.08-.88Z" transform="translate(0 0)"/>
    <path d="M79.53,27A2.26,2.26,0,0,1,82,29.51,2.27,2.27,0,0,1,79.53,32H77.85V27Zm0,4.35a1.65,1.65,0,0,0,1.75-1.88,1.66,1.66,0,0,0-1.75-1.89h-1v3.77Z" transform="translate(0 0)"/>
    <path d="M86.63,32l-.54-1.5H83.67L83.14,32h-.71L84.21,27h1.34L87.33,32ZM83.88,29.9h2l-1-2.84Z" transform="translate(0 0)"/>
    <path d="M87.73,29.51a2.36,2.36,0,1,1,4.7,0,2.36,2.36,0,1,1-4.7,0Zm4,0a1.7,1.7,0,1,0-3.34,0,1.7,1.7,0,1,0,3.34,0Z" transform="translate(0 0)"/>
  </g>
  <g>
    <path d="M17.71,6.2H10v4.51h7.62V13H10v6.8H7.25V3.87H17.71Z" transform="translate(0 0)"/>
    <path d="M27.16,3.87c4,0,6.28,1.87,6.28,5.1s-2.31,5.1-6.28,5.1H23.78v5.75H21.07V3.87Zm.06,7.89c2.21,0,3.4-.94,3.4-2.79S29.43,6.2,27.22,6.2H23.78v5.56Z" transform="translate(0 0)"/>
  </g>
  <g>
    <path d="M51.76,3.87c4.79,0,8,2.68,8,8s-3.21,8-8,8H46.09V3.87Zm.06,13.62c3.26,0,5.15-2,5.15-5.65S55.08,6.2,51.82,6.2h-3V17.49Z" transform="translate(0 0)"/>
    <path d="M74.12,19.82l-1.53-4.57H65.14L63.6,19.82H60.75L66.27,3.87h5.19l5.52,16Zm-8.21-6.88h5.9L68.87,4.2Z" transform="translate(0 0)"/>
    <path d="M77.72,11.84c0-4.95,3.19-8.23,7.79-8.23s7.79,3.28,7.79,8.23-3.2,8.23-7.79,8.23S77.72,16.8,77.72,11.84Zm12.76,0c0-3.59-2-6-5-6s-5,2.43-5,6,2,6,5,6S90.48,15.44,90.48,11.84Z" transform="translate(0 0)"/>
  </g>
</svg>
